<?xml version="1.0" encoding="utf-8"?>
<?xml-stylesheet type="text/xsl" href="rss1.xsl"?>
<rss version="2.0" xmlns:atom="http://www.w3.org/2005/Atom" xmlns:content="http://purl.org/rss/1.0/modules/content/" xmlns:dc="http://purl.org/dc/elements/1.1/" xmlns:media="http://search.yahoo.com/mrss/">
<channel>
 <title>Getty</title>
 <link>http://www.gettyimg.com/</link>
 <atom:link href="http://www.gettyimg.com/" rel="self" type="application/rss+xml" />

 
                <item>
                <title><![CDATA[【Cinema Center】SERIES - Pequeno Príncipe e seus Amigos 1080p GLBO (GLOBOPLAY) WEB-DL AAC2.0 (Brazilian Portuguese) x264-DASH]]></title>
                <link><![CDATA[https://sharemania.us/threads/pequeno-pr%C3%ADncipe-e-seus-amigos-1080p-glbo-globoplay-web-dl-aac2-0-brazilian-portuguese-x264-dash.240320/]]></link>
                <description><![CDATA[<article>
<blockquote class="messageText SelectQuoteContainer ugc baseHtml">
<span style="font-size: 22px"><b>Pequeno.Príncipe.e.seus.Amigos.S01.1080p.GLBO.WEB-DL.AAC2.0.x264-DASH.mkv (Brazilian Portuguese) | MEGA (20.8 GB) | Season 1 | 52 Episodes | DASH</b></span><br>
<span style="font-size: 18px"><br>
English Title: <b>The Little Prince and His Friends | The Little Prince and Friends</b><br>
<br>
Brazilian Portuguese Title:<b><b> Pequeno Príncipe e seus Amigos</b></b><br>
<br>
French Title: </span><b><span style="font-size: 18px">Le Petit Prince et ses amis</span></b><br>
<span style="font-size: 18px"><br>
Language: <b><b>Portuguese (Brazil)</b></b><br>
<br>
Source:</span><b><b> <span style="font-size: 18px">GLOBOPLAY (BRAZIL)</span></b></b><br>
<br>
<div class="ToggleTriggerAnchor bbCodeSpoilerContainer">
<button type="button" class="button bbCodeSpoilerButton ToggleTrigger Tooltip JsOnly" data-target="> .SpoilerTarget"><span>Spoiler: <span class="SpoilerTitle">MediaInfo</span></span></button>
<div class="SpoilerTarget bbCodeSpoilerText">General<br>
Unique ID : 57228500755515507890856593606820174782 (0x2B0DCEEE9126B9932AE63174C6EB1BBE)<br>
Complete name : Pequeno.Príncipe.e.seus.Amigos.S01.1080p.GLBO.WEB-DL.AAC2.0.x264-DASH\Pequeno.Príncipe.e.seus.Amigos.S01E01.Pedindo.pela.Lua.1080p.GLBO.WEB-DL.AAC2.0.x264-DASH.mkv<br>
Format : Matroska<br>
Format version : Version 4<br>
File size : 413 MiB<br>
Duration : 12 min 3 s<br>
Overall bit rate : 4 792 kb/s<br>
Frame rate : 29.970 FPS<br>
Encoded date : 2024-03-20 02:04:41 UTC<br>
Writing application : mkvmerge v82.0 ('I'm The President') 64-bit<br>
Writing library : libebml v1.4.5 + libmatroska v1.7.1<br>
<br>
Video<br>
ID : 1<br>
Format : AVC<br>
Format/Info : Advanced Video Codec<br>
Format profile : High@L4<br>
Format settings : CABAC / 2 Ref Frames<br>
Format settings, CABAC : Yes<br>
Format settings, Reference frames : 2 frames<br>
Codec ID : V_MPEG4/ISO/AVC<br>
Duration : 12 min 3 s<br>
Bit rate : 4 660 kb/s<br>
Width : 1 920 pixels<br>
Height : 1 080 pixels<br>
Display aspect ratio : 16:9<br>
Frame rate mode : Constant<br>
Frame rate : 29.970 (30000/1001) FPS<br>
Color space : YUV<br>
Chroma subsampling : 4:2:0<br>
Bit depth : 8 bits<br>
Scan type : Progressive<br>
Bits/(Pixel*Frame) : 0.075<br>
Stream size : 402 MiB (97%)<br>
Writing library : x264 core 148<br>
Encoding settings : cabac=1 / ref=2 / deblock=1:0:0 / analyse=0x3:0x113 / me=hex / subme=4 / psy=1 / psy_rd=1.00:0.00 / mixed_ref=0 / me_range=16 / chroma_me=1 / trellis=1 / 8x8dct=1 / cqm=0 / deadzone=21,11 / fast_pskip=1 / chroma_qp_offset=0 / threads=24 / lookahead_threads=6 / sliced_threads=0 / nr=0 / decimate=1 / interlaced=0 / bluray_compat=0 / constrained_intra=0 / bframes=1 / b_pyramid=0 / b_adapt=1 / b_bias=0 / direct=1 / weightb=1 / open_gop=0 / weightp=1 / keyint=30 / keyint_min=16 / scenecut=0 / intra_refresh=0 / rc=2pass / mbtree=0 / bitrate=4660 / ratetol=1.0 / qcomp=0.60 / qpmin=0 / qpmax=69 / qpstep=4 / cplxblur=20.0 / qblur=0.5 / ip_ratio=1.40 / pb_ratio=1.30 / aq=1:1.00<br>
Default : Yes<br>
Forced : No<br>
<br>
Audio<br>
ID : 2<br>
Format : AAC LC<br>
Format/Info : Advanced Audio Codec Low Complexity<br>
Codec ID : A_AAC-2<br>
Duration : 12 min 3 s<br>
Bit rate : 128 kb/s<br>
Channel(s) : 2 channels<br>
Channel layout : L R<br>
Sampling rate : 44.1 kHz<br>
Frame rate : 43.066 FPS (1024 SPF)<br>
Compression mode : Lossy<br>
Delay relative to video : -46 ms<br>
Stream size : 11.0 MiB (3%)<br>
Default : Yes<br>
Forced : No</div>
</div><img src="https://i.imgur.com/imVQs9P.jpeg" class="bbCodeImage LbImage" alt="[​IMG]" data-url="https://i.imgur.com/imVQs9P.jpeg" style=""> <br>
<br>
<b><span style="font-size: 22px">O Pequeno Príncipe, seus amigos, a Raposa e a Rosa, embarcam em uma aventura em uma nave espacial. Do pátio da escola até a galáxia, a diversão e aventura estão só começando!<br>
<br>
<br>
Screenshots:</span></b><br>
<img src="https://i.imgur.com/2S4YXda.png" class="bbCodeImage LbImage" alt="[​IMG]" data-url="https://i.imgur.com/2S4YXda.png" style=""> <br>
<br>
<b><span style="font-size: 22px"><br>
<b><span style="font-size: 26px">Download on MEGA:</span></b></span><br>
<span style="font-size: 18px">
<div class="bbCodeBlock bbCodeVfcHH HiddenContent">
<div class="attribution type">Hidden Content:</div>
<blockquote>You must reply before you can see the hidden data contained here.</blockquote>
</div></span></b>
<div class="messageTextEndMarker">&nbsp;</div>
</blockquote>
</article>]]></description>
                <author><![CDATA[dash]]></author>
                </item>

                </channel></rss>